<?xml version="1.0" encoding="UTF-8"?>
<!-- Generated by Pixelmator Pro 3.7 -->
<svg width="2880" height="1800" viewBox="0 0 2880 1800" xmlns="http://www.w3.org/2000/svg">
    <path id="Forme" fill="#00a2ff" fill-rule="evenodd" stroke="none" d="M 937.5 1271.736572 C 685.878174 1271.939697 643.93512 1271.771729 640.5 1270.546631 C 637.950317 1269.637451 634.371582 1266.832275 630.629822 1262.810059 C 627.401245 1259.3396 617.001221 1246.824951 607.518677 1235 C 598.036133 1223.175049 583.577759 1204.871826 575.388855 1194.326172 C 567.200012 1183.780762 559.024536 1172.712402 557.221252 1169.730225 C 555.417969 1166.747925 553.392944 1162.851685 552.721252 1161.071899 C 551.769714 1158.550537 551.5 1092.875854 551.5 863.667969 C 551.5 576.734619 551.546875 569.378418 553.405945 564.55835 C 554.454224 561.840332 558.91687 554.865234 563.322998 549.05835 C 567.729126 543.251221 583.713135 522.974976 598.843079 504 C 613.973022 485.025024 629.100586 466.650879 632.459839 463.168701 C 637.044678 458.41626 639.65918 456.546143 642.945374 455.668701 C 646.237671 454.789795 719.408813 454.5 938.056396 454.5 C 1228.789795 454.5 1228.789795 454.5 1233.199219 456.641968 C 1236.480957 458.236084 1240.322266 462.07251 1248.218384 471.641968 C 1254.053711 478.713867 1266.201294 493.724976 1275.213135 505 C 1284.224854 516.275024 1296.872314 532.321533 1303.318481 540.658813 C 1309.764648 548.996094 1316.267578 557.996094 1317.769409 560.658813 C 1320.5 565.5 1320.5 565.5 1320.808838 621.5 C 1321.087402 672.027466 1320.956055 677.806152 1319.464722 680.632324 C 1318.555664 682.355225 1316.708008 684.2677 1315.358887 684.882324 C 1313.914307 685.540527 1306.987183 686 1298.508789 686 C 1284.909424 686 1283.962646 685.87207 1281.426025 683.690063 C 1279.533936 682.062622 1278.501099 679.920654 1277.929932 676.440063 C 1277.484009 673.723022 1277.074463 657.099976 1277.019897 639.5 C 1276.956299 619.023193 1276.476074 604.969727 1275.686279 600.473389 C 1275.007324 596.608765 1273.260864 591.433716 1271.805176 588.973389 C 1270.349609 586.512939 1260.55127 573.699951 1250.03125 560.5 C 1239.51123 547.300049 1227.213013 532 1222.701904 526.5 C 1215.967773 518.289551 1213.427612 515.964478 1208.507813 513.507568 C 1202.515625 510.515137 1202.515625 510.515137 1176.007813 509.845947 C 1161.428467 509.478027 1055 509.177246 939.5 509.177734 C 824 509.178223 716.224976 509.531738 700 509.963257 C 681.546265 510.454102 669.004761 511.212158 666.506775 511.988037 C 663.815186 512.823975 660.630798 515.228271 656.737305 519.364136 C 653.560303 522.738892 641.271545 537.650024 629.428833 552.5 C 617.586182 567.349976 605.704834 582.748047 603.02594 586.717773 C 599.886536 591.369873 597.683289 595.990967 596.827576 599.717773 C 595.73999 604.454834 595.536926 651.140259 595.704224 858 C 595.81897 999.918701 596.308105 1115.107422 596.821106 1121.020508 C 597.522461 1129.105347 598.32666 1132.694092 600.29425 1136.520508 C 601.702454 1139.259277 609.261047 1149.599976 617.091125 1159.5 C 624.921143 1169.400024 637.817017 1185.480835 645.748535 1195.235229 C 658.48114 1210.894165 660.657104 1213.11853 664.334717 1214.235229 C 667.648193 1215.241333 723.11792 1215.5 935.587402 1215.5 C 1134.432739 1215.5 1203.802246 1215.204712 1207.087402 1214.344238 C 1210.540161 1213.439941 1212.748291 1211.80835 1217.238647 1206.844238 C 1220.394897 1203.35498 1232.455078 1188.574951 1244.038818 1174 C 1255.622803 1159.425049 1267.189209 1144.452393 1269.741943 1140.727661 C 1273.462158 1135.299805 1274.635376 1132.520508 1275.6521 1126.727661 C 1276.482178 1121.997681 1276.949463 1108.614502 1277.003906 1088 C 1277.049561 1070.675049 1277.475342 1054.487793 1277.949829 1052.02832 C 1278.539185 1048.973267 1279.797607 1046.676514 1281.922119 1044.77832 C 1285.006714 1042.022217 1285.142822 1042 1298.96875 1042 C 1306.859863 1042 1313.939209 1042.470703 1315.287598 1043.085205 C 1316.597656 1043.682129 1318.418823 1045.438965 1319.334717 1046.989502 C 1320.834473 1049.52832 1321 1055.317505 1321 1105.234863 C 1321 1160.661011 1321 1160.661011 1318.75 1165.098511 C 1317.512451 1167.539063 1312.025391 1175.377808 1306.556274 1182.517944 C 1301.08728 1189.658081 1288.746216 1205.400024 1279.131836 1217.5 C 1269.517334 1229.599976 1256.289307 1245.952271 1249.736084 1253.838379 C 1241.522217 1263.723145 1236.684326 1268.692871 1234.160645 1269.838379 C 1230.779053 1271.373291 1208.169678 1271.518066 937.5 1271.736572 Z M 936.967651 1162.767334 C 715.346924 1163.034424 715.346924 1163.034424 711.923462 1160.73877 C 710.040527 1159.476074 702.05542 1150.580811 694.178711 1140.971558 C 686.302063 1131.362183 674.152039 1116.191772 667.178711 1107.259521 C 660.205444 1098.327271 653.003418 1088.202271 651.174194 1084.759521 C 647.848389 1078.5 647.848389 1078.5 648.174194 858.5 C 648.5 638.5 648.5 638.5 651.154541 633.794922 C 652.614563 631.207031 662.514526 618.173584 673.154541 604.831543 C 683.794556 591.489502 696.416016 575.831787 701.202271 570.036621 C 705.988464 564.241455 711.388489 558.599976 713.202271 557.5 C 716.46936 555.518555 718.536743 555.497192 935.5 555.198486 C 1149.672607 554.903809 1154.588135 554.939453 1158.5 556.815674 C 1161.196533 558.109131 1165.2854 562.117432 1171.048096 569.117188 C 1175.749512 574.827637 1184.329346 585.349976 1190.114258 592.5 C 1195.89917 599.650024 1205.028687 611.125 1210.4021 618 C 1215.775391 624.875 1221.14563 632.459473 1222.335938 634.85437 C 1224.5 639.20874 1224.5 639.20874 1224.5 859.968506 C 1224.5 1063.862061 1224.372803 1080.986816 1222.835693 1084.114136 C 1221.92041 1085.976318 1215.768188 1094.399048 1209.164185 1102.831177 C 1202.560181 1111.263428 1189.633301 1127.381958 1180.437988 1138.650269 C 1171.242432 1149.918579 1162.564453 1159.894531 1161.153564 1160.819092 C 1158.773193 1162.378906 1142.612061 1162.519287 936.967651 1162.767334 Z M 936.015625 1096.960938 C 1107.023438 1096.997803 1117.719727 1096.898682 1120.78833 1095.25 C 1122.755005 1094.193359 1131.207275 1084.585205 1142.120972 1071 C 1152.0625 1058.625 1161.345215 1046.544434 1162.74939 1044.154175 C 1164.903564 1040.487061 1165.473877 1037.753906 1166.401123 1026.654175 C 1167.137695 1017.837036 1167.5 962.889648 1167.5 860 C 1167.5 757.110352 1167.137695 702.162964 1166.401123 693.345825 C 1165.463989 682.126709 1164.919922 679.552246 1162.703125 675.845825 C 1161.273682 673.455566 1152.318115 661.842529 1142.802002 650.038818 C 1133.285889 638.235352 1124.009766 627.573975 1122.188232 626.346924 C 1120.366943 625.120117 1116.54187 623.63208 1113.688232 623.040405 C 1110.071167 622.290527 1055.20166 622.045654 932.5 622.232422 C 772.470337 622.475708 756.175476 622.647583 752.923828 624.126343 C 750.956909 625.020874 746.823547 628.62085 743.738525 632.126343 C 740.653564 635.631836 731.534973 646.781738 723.475098 656.904053 C 715.415161 667.026367 708.073547 676.875 707.160339 678.790039 C 705.632568 681.993896 705.5 696.413574 705.5 859.385986 C 705.5 1025.915771 705.604919 1036.768921 707.255859 1041 C 708.221558 1043.474976 713.120972 1050.675049 718.143372 1057 C 723.165771 1063.324951 731.98822 1074.280273 737.748779 1081.345093 C 744.245117 1089.312256 749.41449 1094.70874 751.361267 1095.555908 C 753.975037 1096.693359 784.858032 1096.928223 936.015625 1096.960938 Z M 933.275757 1052 C 792.736816 1052 792.736816 1052 788.595215 1047.75 C 786.317322 1045.412476 780.839783 1039 776.422852 1033.5 C 772.005981 1028 765.440186 1019.674988 761.832214 1015 C 758.224243 1010.325012 754.536011 1005.059814 753.636108 1003.299683 C 752.14447 1000.381958 752.000732 987.886169 752.008179 861.799683 C 752.016357 723.5 752.016357 723.5 754.758179 718.863281 C 756.266174 716.31311 763.575012 706.645752 771 697.380127 C 778.424988 688.114502 786.55481 678.388672 789.066162 675.766846 C 793.632324 671 793.632324 671 932.890503 671 C 1072.148682 671 1072.148682 671 1076.997314 675.75 C 1079.664185 678.362549 1087.792725 687.925049 1095.060913 697 C 1102.329102 706.074951 1109.563721 715.50061 1111.137939 717.945801 C 1114 722.391602 1114 722.391602 1114 862.045288 C 1114 1001.699036 1114 1001.699036 1111.25 1005.753296 C 1109.737549 1007.983154 1102.650024 1017.126831 1095.5 1026.07251 C 1088.349976 1035.018188 1080.545776 1044.511475 1078.157349 1047.168701 C 1073.814697 1052 1073.814697 1052 933.275757 1052 Z M 1301.5 1028.687866 C 1296.168701 1028.91626 1292.185059 1028.542236 1289.557861 1027.567017 C 1287.389648 1026.762085 1284.4646 1025.24646 1283.057861 1024.198853 C 1281.651001 1023.151306 1279.599976 1020.133728 1278.5 1017.493103 C 1276.684326 1013.134521 1276.5 1010.424927 1276.5 988.096008 C 1276.5 974.568237 1276.824463 962.348267 1277.221191 960.940552 C 1277.61792 959.532959 1278.967896 956.863647 1280.221191 955.008911 C 1281.474609 953.154175 1284.731934 950.525146 1287.459961 949.166748 C 1291.222656 947.292969 1294.118896 946.673096 1299.459961 946.598389 C 1303.332031 946.544312 1308.480713 947.157043 1310.901611 947.960083 C 1313.322388 948.763123 1316.759888 950.794128 1318.540527 952.473389 C 1320.321045 954.15271 1322.305908 957.320679 1322.95105 959.513306 C 1323.597656 961.710571 1323.984131 967.539673 1323.812134 972.5 C 1323.5 981.5 1323.5 981.5 1314.5 981.5 C 1305.5 981.5 1305.5 981.5 1305.279541 974.5 C 1305.158325 970.650024 1304.708252 965.924988 1304.279541 964 C 1303.647217 961.161194 1302.980591 960.440247 1300.750488 960.183594 C 1298.556641 959.931152 1297.798828 960.399048 1297.000488 962.498718 C 1296.437012 963.980835 1296 975.317505 1296 988.454346 C 1296 1010.047974 1296.143799 1011.953613 1297.937378 1014.139221 C 1299.511719 1016.057739 1300.212891 1016.293152 1301.67981 1015.395752 C 1302.672607 1014.788452 1303.828125 1012.988403 1304.247803 1011.395752 C 1304.667236 1009.803101 1305.120605 1005.799988 1305.255249 1002.5 C 1305.5 996.5 1305.5 996.5 1314.5 996.5 C 1323.5 996.5 1323.5 996.5 1323.81543 1004 C 1323.98877 1008.125 1323.651611 1013.126587 1323.065796 1015.114624 C 1322.480103 1017.102661 1321.058105 1019.927673 1319.905884 1021.392517 C 1318.753662 1022.8573 1315.940918 1025.020996 1313.655518 1026.200562 C 1310.692871 1027.729614 1307.203369 1028.443604 1301.5 1028.687866 Z M 1360.5 963.5 L 1378.5 963.5 L 1378.704102 986.5 C 1378.816162 999.150024 1379.266235 1011.075012 1379.704102 1013 C 1380.288086 1015.567993 1381.032593 1016.5 1382.5 1016.5 C 1383.967407 1016.5 1384.711914 1015.567993 1385.295898 1013 C 1385.733765 1011.075012 1386.183838 999.150024 1386.295898 986.5 L 1386.5 963.5 L 1395.5 963.5 L 1404.5 963.5 L 1404.5 995 L 1404.5 1026.5 L 1396.5 1026.83313 C 1392.099976 1027.016357 1387.325562 1026.741699 1385.890137 1026.2229 C 1384.049561 1025.557617 1382.575928 1025.670044 1380.890137 1026.60437 C 1379.575562 1027.333008 1375.87793 1027.945068 1372.673096 1027.9646 C 1367.575928 1027.995605 1366.489258 1027.643066 1363.996582 1025.150391 C 1362.429443 1023.583252 1360.87085 1020.770752 1360.533081 1018.900452 C 1360.195313 1017.030212 1360.049805 1003.799988 1360.209473 989.5 L 1360.5 963.5 Z M 1413.5 1026.5 L 1413.5 948.5 L 1422.5 948.5 C 1431.5 948.5 1431.5 948.5 1432 955.202148 C 1432.275024 958.888367 1433.008545 962.411987 1433.630371 963.032471 C 1434.469482 963.870056 1435.963867 963.752075 1439.432617 962.574341 C 1442.002197 961.701965 1445.318604 961.252441 1446.802368 961.575378 C 1448.286133 961.898315 1450.758789 962.639404 1452.297119 963.222168 C 1453.835571 963.804932 1455.748047 965.546021 1456.547119 967.091187 C 1457.702148 969.324585 1458 974.944702 1458 994.5 C 1458 1014.532227 1457.718384 1019.643921 1456.483154 1022.032715 C 1455.648682 1023.646118 1453.646118 1025.648682 1452.032715 1026.483154 C 1450.419434 1027.317383 1447.164551 1027.971191 1444.799683 1027.936035 C 1442.434814 1027.900879 1439.042969 1027.146851 1437.262329 1026.260498 C 1434.616455 1024.943359 1433.607422 1024.87207 1431.741699 1025.870605 C 1430.331177 1026.625488 1426.409912 1026.979248 1421.479492 1026.796143 L 1413.5 1026.5 Z M 1332.5 948.5 L 1351.5 948.5 L 1351.5 987.5 L 1351.5 1026.5 L 1342.233154 1026.78772 C 1335.371338 1027.000732 1332.837646 1026.740479 1332.470825 1025.784668 C 1332.198364 1025.074585 1332.093506 1007.395142 1332.237793 986.496826 L 1332.5 948.5 Z M 1435.929932 1016 C 1437.374268 1016 1438.075439 1015.115234 1438.523315 1012.727295 C 1438.861084 1010.927246 1438.993896 1001.723633 1438.818604 992.274658 C 1438.622559 981.701843 1438.083496 974.679321 1437.417236 974.014587 C 1436.821777 973.420532 1435.62854 973.205322 1434.765747 973.536377 C 1433.903076 973.867432 1432.933838 975.119751 1432.612183 976.319214 C 1432.290527 977.518616 1432.02124 985.783203 1432.013672 994.684937 C 1432.006104 1003.586609 1432.438843 1012.024109 1432.97522 1013.434937 C 1433.568848 1014.995972 1434.725342 1016 1435.929932 1016 Z M 932.184937 986.996277 C 986.96167 986.998535 1022.85083 986.627014 1024.390259 986.041748 C 1025.776611 985.514648 1030.484131 980.768799 1034.851563 975.495239 C 1039.218994 970.221802 1044.076538 964.054199 1045.64624 961.789551 C 1048.5 957.671997 1048.5 957.671997 1048.798584 871.085938 C 1048.962891 823.463684 1048.819824 782.568359 1048.480957 780.207397 C 1047.979614 776.715088 1046.000244 773.577637 1037.863281 763.377563 C 1030.948975 754.710205 1026.812622 750.401855 1024.463013 749.420166 C 1021.613403 748.229492 1006.719482 748.000244 932.282104 748.001465 C 849.704346 748.00293 843.265747 748.125244 840.147827 749.751465 C 838.176025 750.780029 832.938538 756.41333 827.428955 763.431519 C 819.934448 772.978149 817.842163 776.376221 816.961426 780.431519 C 816.194275 783.964233 815.957642 811.254883 816.18042 870.5 C 816.454956 943.510193 816.711548 955.949036 818 958.683411 C 818.825012 960.434265 823.325012 966.689087 828 972.583069 C 832.674988 978.477051 837.849976 984.13031 839.5 985.145935 C 842.358276 986.905273 846.737061 986.992676 932.184937 986.996277 Z M 1463.5 838.5 C 1477.025391 838.030884 1481.335083 838.376587 1482.608154 839.057861 C 1484.233887 839.927979 1485.295654 839.91217 1487.014404 838.99231 C 1488.259766 838.325806 1490.653809 837.386108 1492.334229 836.904175 C 1494.186523 836.372925 1496.859375 836.423584 1499.121826 837.032837 C 1501.175415 837.585815 1504.01123 839.413086 1505.427002 841.095581 C 1508 844.153442 1508 844.153442 1508 869.126343 C 1508 889.326294 1507.714355 894.651611 1506.505737 896.988953 C 1505.683838 898.578247 1504.008789 900.580933 1502.783203 901.439331 C 1501.511108 902.330322 1498.483643 903 1495.727783 903 C 1493.072876 903 1489.52124 902.286743 1487.835449 901.414917 C 1485.623779 900.27124 1484.466797 900.133301 1483.680542 900.919434 C 1483.081299 901.518738 1482.345459 904.144531 1482.04541 906.754517 C 1481.5 911.5 1481.5 911.5 1472.733643 911.789185 C 1466.267578 912.002441 1463.836914 911.738647 1463.470581 910.783936 C 1463.197388 910.072021 1463.092285 893.516846 1463.236938 873.994751 L 1463.5 838.5 Z M 1301.5 903.687866 C 1296.168701 903.916199 1292.185059 903.542297 1289.557861 902.567017 C 1287.389648 901.762085 1284.4646 900.24646 1283.057861 899.198853 C 1281.651001 898.151306 1279.599976 895.133667 1278.5 892.493103 C 1276.684326 888.134521 1276.5 885.424927 1276.5 863.096008 C 1276.5 849.568237 1276.824463 837.348267 1277.221191 835.940552 C 1277.61792 834.532959 1278.967896 831.863647 1280.221191 830.008911 C 1281.474609 828.154175 1284.731934 825.525146 1287.459961 824.166748 C 1291.222656 822.292969 1294.118896 821.673096 1299.459961 821.598389 C 1303.332031 821.544312 1308.480713 822.157043 1310.901611 822.960083 C 1313.322388 823.763123 1316.759888 825.794128 1318.540527 827.473389 C 1320.321045 829.15271 1322.305908 832.320679 1322.95105 834.513306 C 1323.597656 836.710571 1323.984131 842.539673 1323.812134 847.5 C 1323.5 856.5 1323.5 856.5 1314.5 856.5 C 1305.5 856.5 1305.5 856.5 1305.279541 849.5 C 1305.158325 845.650024 1304.708252 840.924988 1304.279541 839 C 1303.647217 836.161194 1302.980591 835.440247 1300.750488 835.183594 C 1298.556641 834.931152 1297.798828 835.399048 1297.000488 837.498718 C 1296.437012 838.980835 1296 850.317505 1296 863.454346 C 1296 885.047974 1296.143799 886.953613 1297.937378 889.139221 C 1299.511719 891.057739 1300.212891 891.293152 1301.67981 890.395752 C 1302.672607 889.788452 1303.828125 887.988403 1304.247803 886.395752 C 1304.667236 884.803101 1305.120605 880.799988 1305.255249 877.5 C 1305.5 871.5 1305.5 871.5 1314.5 871.5 C 1323.5 871.5 1323.5 871.5 1323.81543 879 C 1323.98877 883.125 1323.651611 888.126587 1323.065796 890.114624 C 1322.480103 892.102661 1321.058105 894.927673 1319.905884 896.392456 C 1318.753662 897.8573 1315.940918 900.020935 1313.655518 901.200562 C 1310.692871 902.729614 1307.203369 903.443665 1301.5 903.687866 Z M 1353.289795 902.983521 C 1346.033203 902.969971 1343.805786 902.573975 1340.520386 900.713135 C 1338.289063 899.449402 1335.550537 896.710938 1334.286865 894.479614 C 1332.160767 890.725708 1332.033203 889.393982 1332.03833 871 C 1332.043213 854.223694 1332.300293 850.935547 1333.879639 847.458618 C 1334.889404 845.23584 1337.1427 842.216309 1338.887207 840.748413 C 1340.631592 839.280518 1343.733154 837.753601 1345.779419 837.355164 C 1347.825684 836.956726 1352.313232 836.702637 1355.751465 836.790405 C 1359.253662 836.879883 1363.431519 837.672241 1365.251465 838.592041 C 1367.038086 839.495117 1369.555176 841.193848 1370.844971 842.366943 C 1372.134766 843.540161 1373.822266 845.715149 1374.594971 847.200317 C 1375.662109 849.251099 1376 854.615479 1376 869.5 C 1376 885.586609 1375.709473 889.672913 1374.379395 892.299683 C 1373.488037 894.059814 1372.025635 896.335388 1371.129395 897.356445 C 1370.233154 898.377441 1367.830444 900.064941 1365.789795 901.106445 C 1362.97168 902.544739 1359.966431 902.996033 1353.289795 902.983521 Z M 1516.5 838.5 L 1534.5 838.5 L 1534.704102 861.5 C 1534.816162 874.150024 1535.266235 886.075012 1535.704102 888 C 1536.288086 890.567993 1537.032593 891.5 1538.5 891.5 C 1539.967407 891.5 1540.711914 890.567993 1541.295898 888 C 1541.733765 886.075012 1542.183838 874.150024 1542.295898 861.5 L 1542.5 838.5 L 1551.194336 838.211914 C 1558.732422 837.962036 1560.002197 838.161621 1560.741211 839.711914 C 1561.209961 840.695313 1561.347534 855 1561.046875 871.5 L 1560.5 901.5 L 1552.5 901.83313 C 1548.099976 902.016357 1543.325562 901.741699 1541.890137 901.2229 C 1540.049561 900.557617 1538.575928 900.670044 1536.890137 901.60437 C 1535.575562 902.333008 1531.87793 902.945068 1528.673096 902.9646 C 1523.575928 902.995605 1522.489258 902.643127 1519.996582 900.150452 C 1518.429443 898.583252 1516.87085 895.770752 1516.533081 893.900452 C 1516.195313 892.030212 1516.049805 878.799988 1516.209473 864.5 L 1516.5 838.5 Z M 1622.282104 902.960815 C 1617.640259 902.9375 1613.099731 902.314331 1611.029785 901.416504 C 1609.121094 900.588684 1606.710693 899.143799 1605.67334 898.205688 C 1604.635986 897.267578 1602.935059 894.830444 1601.893555 892.789795 C 1600.231323 889.532959 1600 886.749512 1600 870.00769 C 1600 856.251648 1600.376587 850.034485 1601.351074 847.702271 C 1602.094116 845.923828 1604.334473 843.035522 1606.329712 841.283691 C 1608.324829 839.531921 1611.654419 837.768372 1613.728638 837.364685 C 1615.802856 836.960999 1620.308105 836.702454 1623.740356 836.7901 C 1627.734741 836.89209 1631.389648 837.668335 1633.895752 838.946838 C 1636.049072 840.04541 1638.753662 842.1427 1639.905884 843.607544 C 1641.058105 845.072327 1642.479492 847.897339 1643.064575 849.885376 C 1643.649658 851.873413 1643.986938 857.099976 1643.814209 861.5 C 1643.5 869.5 1643.5 869.5 1632.166016 870 C 1622.444824 870.428833 1620.630615 870.776245 1619.416016 872.441162 C 1618.559937 873.614624 1618.039429 876.580444 1618.099731 879.941162 C 1618.154541 882.998535 1618.502197 886.582397 1618.872437 887.905396 C 1619.242554 889.228271 1620.314331 890.795654 1621.254028 891.388428 C 1622.559448 892.211914 1623.355103 892.073425 1624.627075 890.801453 C 1625.650635 889.777954 1626.524414 886.703186 1626.895874 882.818359 C 1627.5 876.5 1627.5 876.5 1635.5 876.5 C 1643.5 876.5 1643.5 876.5 1643.806152 882.458374 C 1643.974487 885.735413 1643.855469 889.439697 1643.541626 890.690002 C 1643.227905 891.940308 1641.522095 894.613647 1639.751221 896.630615 C 1637.980225 898.647583 1635.076172 900.905884 1633.297729 901.648926 C 1631.483887 902.40686 1626.647705 902.982788 1622.282104 902.960815 Z M 1384.5 838.5 C 1396.900024 837.983643 1401.674438 838.258301 1403.109863 838.7771 C 1404.950439 839.442383 1406.424072 839.329956 1408.109863 838.39563 C 1409.424438 837.666992 1412.710449 837.054932 1415.412109 837.0354 C 1418.937012 837.01001 1421.570068 837.730103 1424.735596 839.585144 C 1429.146729 842.170288 1429.146729 842.170288 1433.117676 839.418457 C 1435.917969 837.477783 1438.328247 836.668213 1441.294189 836.671875 C 1443.607422 836.674683 1446.89917 837.403442 1448.609131 838.291382 C 1450.319092 839.179199 1452.344238 841.389404 1453.109131 843.202881 C 1454.18335 845.749268 1454.5 852.761719 1454.5 874 L 1454.5 901.5 L 1446 901.5 L 1437.5 901.5 L 1436.901123 877.5 C 1436.550537 863.446045 1435.835571 852.360352 1435.175903 850.75 C 1434.556396 849.237488 1433.37915 848 1432.559937 848 C 1431.740723 848 1430.498901 849.012512 1429.800537 850.25 C 1428.913818 851.821045 1428.375 859.893311 1428.015259 877 L 1427.5 901.5 L 1419 901.5 L 1410.5 901.5 L 1410.271729 878.5 C 1410.14624 865.849976 1409.783936 854.013855 1409.466553 852.197449 C 1409.149292 850.381042 1408.20459 848.631958 1407.36731 848.310669 C 1406.530029 847.98938 1405.092285 848.478149 1404.172485 849.396851 C 1402.726318 850.841187 1402.432373 854.479248 1402 876.28363 L 1401.5 901.5 L 1393.234253 901.79071 C 1387.155518 902.004517 1384.836426 901.737183 1384.469238 900.780396 C 1384.19458 900.064819 1384.089233 885.758972 1384.234985 868.989624 L 1384.5 838.5 Z M 1585.80835 901.788086 C 1577.4104 902.066406 1577.005005 901.976318 1573.80835 899.12146 C 1570.5 896.166748 1570.5 896.166748 1570.197144 874.333374 C 1569.913086 853.853516 1569.761108 852.315247 1567.74707 849.52002 C 1566.566162 847.880981 1565.599976 845.09082 1565.599976 843.319702 C 1565.599976 841.548584 1566.418091 839.195557 1567.417969 838.090698 C 1568.417725 836.98584 1569.538818 834.600952 1569.908936 832.790955 C 1570.582031 829.5 1570.582031 829.5 1579.5 829.5 C 1588.417969 829.5 1588.417969 829.5 1589.096069 832.815308 C 1589.468994 834.638794 1590.724976 837.142761 1591.887085 838.379761 C 1593.049194 839.616821 1594 841.884949 1594 843.420105 C 1594 844.955566 1592.848755 847.579468 1591.440918 849.252625 C 1588.881714 852.293945 1588.881714 852.293945 1589.190918 871.162048 C 1589.5 890.03009 1589.5 890.03009 1592.330566 892.285156 C 1594.637939 894.123352 1595.099976 895.183289 1594.830566 898.02002 C 1594.5 901.5 1594.5 901.5 1585.80835 901.788086 Z M 1652.5 838.5 C 1664.125 837.991943 1669.008911 838.375366 1670.853027 839.02417 C 1673.690186 840.022461 1674.725952 839.924011 1677.585205 838.384155 C 1679.960449 837.105042 1681.278564 836.87854 1682.021851 837.621826 C 1682.659424 838.259399 1682.964233 842.410767 1682.789673 848.077454 C 1682.5 857.475586 1682.5 857.475586 1677.800171 859.704285 C 1673.934692 861.537231 1672.909302 862.604614 1672.02417 865.716431 C 1671.432251 867.797363 1670.847168 876.700012 1670.723999 885.5 L 1670.5 901.5 L 1661.733643 901.789185 C 1655.250732 902.003052 1652.837402 901.739868 1652.468628 900.778809 C 1652.194336 900.064087 1652.089233 885.758972 1652.234985 868.989624 L 1652.5 838.5 Z M 1354 891 C 1354.986816 891 1356.032959 890.006775 1356.369629 888.75 C 1356.701416 887.512512 1356.972656 879.075012 1356.972656 870 C 1356.972656 860.924988 1356.701416 852.487488 1356.369629 851.25 C 1356.032959 849.993225 1354.986816 849 1354 849 C 1353.013184 849 1351.967041 849.993225 1351.630371 851.25 C 1351.298584 852.487488 1351.027344 860.924988 1351.027344 870 C 1351.027344 879.075012 1351.298584 887.512512 1351.630371 888.75 C 1351.967041 890.006775 1353.013184 891 1354 891 Z M 1485.929932 891 C 1487.374268 891 1488.075439 890.115234 1488.523315 887.727295 C 1488.861084 885.927246 1488.993896 876.723633 1488.818604 867.274658 C 1488.622559 856.701843 1488.083496 849.679321 1487.417236 849.014587 C 1486.821777 848.420532 1485.62854 848.205322 1484.765747 848.536377 C 1483.903076 848.867432 1482.933838 850.119751 1482.612183 851.319214 C 1482.290527 852.518616 1482.02124 860.783203 1482.013672 869.684937 C 1482.006104 878.586609 1482.438843 887.024109 1482.97522 888.434937 C 1483.568848 889.995972 1484.725342 891 1485.929932 891 Z M 1622 860 C 1622.577271 860 1623.506958 858.796814 1624.06604 857.326294 C 1624.625122 855.855713 1624.803223 853.380737 1624.461792 851.826294 C 1624.054688 849.972778 1623.207397 849 1622 849 C 1620.792603 849 1619.945313 849.972778 1619.538208 851.826294 C 1619.196777 853.380737 1619.374878 855.855713 1619.93396 857.326294 C 1620.493042 858.796814 1621.422729 860 1622 860 Z M 1301.5 778.687866 C 1296.168701 778.916199 1292.185059 778.542297 1289.557861 777.567017 C 1287.389648 776.762085 1284.4646 775.24646 1283.057861 774.198853 C 1281.651001 773.151367 1279.599976 770.133667 1278.5 767.493164 C 1276.684326 763.134521 1276.5 760.424927 1276.5 738.095947 C 1276.5 724.568115 1276.824463 712.348267 1277.221191 710.940674 C 1277.61792 709.532959 1278.967896 706.863647 1280.221191 705.008911 C 1281.474609 703.154053 1284.731934 700.525146 1287.459961 699.166748 C 1291.222656 697.292969 1294.118896 696.673096 1299.459961 696.598389 C 1303.332031 696.544312 1308.480713 697.156982 1310.901611 697.960083 C 1313.322388 698.763184 1316.759888 700.794189 1318.540527 702.473389 C 1320.321045 704.15271 1322.305908 707.320679 1322.95105 709.513428 C 1323.597656 711.710571 1323.984131 717.539551 1323.812134 722.5 C 1323.5 731.5 1323.5 731.5 1314.5 731.5 C 1305.5 731.5 1305.5 731.5 1305.279541 724.5 C 1305.158325 720.650024 1304.708252 715.925049 1304.279541 714 C 1303.647217 711.161133 1302.980591 710.440186 1300.750488 710.183594 C 1298.556641 709.931152 1297.798828 710.399048 1297.000488 712.498779 C 1296.437012 713.980835 1296 725.317505 1296 738.454346 C 1296 760.047974 1296.143799 761.953613 1297.937378 764.13916 C 1299.511719 766.057739 1300.212891 766.293213 1301.67981 765.395752 C 1302.672607 764.788452 1303.828125 762.988403 1304.247803 761.395752 C 1304.667236 759.803101 1305.120605 755.800049 1305.255249 752.5 C 1305.5 746.5 1305.5 746.5 1314.5 746.5 C 1323.5 746.5 1323.5 746.5 1323.81543 754 C 1323.98877 758.125 1323.651611 763.126587 1323.065796 765.114624 C 1322.480103 767.102661 1321.058105 769.927734 1319.905884 771.392456 C 1318.753662 772.8573 1315.940918 775.020996 1313.655518 776.200562 C 1310.692871 777.729614 1307.203369 778.443665 1301.5 778.687866 Z M 1353.289795 777.983521 C 1346.033203 777.969971 1343.805786 777.573975 1340.520386 775.713135 C 1338.289063 774.449463 1335.550537 771.710938 1334.286865 769.479614 C 1332.160767 765.725708 1332.033203 764.394043 1332.03833 746 C 1332.043213 729.223633 1332.300293 725.935547 1333.879639 722.458618 C 1334.889404 720.23584 1337.1427 717.216309 1338.887207 715.748413 C 1340.631592 714.280518 1343.733154 712.753662 1345.779419 712.355225 C 1347.825684 711.956787 1352.313232 711.702637 1355.751465 711.790405 C 1359.253662 711.879883 1363.431519 712.672119 1365.251465 713.592041 C 1367.038086 714.495117 1369.555176 716.193848 1370.844971 717.366943 C 1372.134766 718.540161 1373.822266 720.715088 1374.594971 722.200317 C 1375.662109 724.251099 1376 729.615479 1376 744.5 C 1376 760.58667 1375.709473 764.672852 1374.379395 767.299683 C 1373.488037 769.059814 1372.025635 771.335449 1371.129395 772.356445 C 1370.233154 773.377441 1367.830444 775.064941 1365.789795 776.106445 C 1362.97168 777.544739 1359.966431 777.996033 1353.289795 777.983521 Z M 1520.289795 777.983521 C 1513.033203 777.969971 1510.805786 777.573975 1507.520386 775.713135 C 1505.289063 774.449463 1502.550537 771.710938 1501.286865 769.479614 C 1499.160767 765.725708 1499.033203 764.394043 1499.03833 746 C 1499.043213 729.223633 1499.300293 725.935547 1500.879639 722.458618 C 1501.889404 720.23584 1504.1427 717.216309 1505.887207 715.748413 C 1507.631592 714.280518 1510.733154 712.753662 1512.779419 712.355225 C 1514.825684 711.956787 1519.313232 711.702637 1522.751465 711.790405 C 1526.253662 711.879883 1530.431519 712.672119 1532.251465 713.592041 C 1534.038086 714.495117 1536.555176 716.193848 1537.844971 717.366943 C 1539.134766 718.540161 1540.822266 720.715088 1541.594971 722.200317 C 1542.662109 724.251099 1543 729.615479 1543 744.5 C 1543 760.58667 1542.709473 764.672852 1541.379395 767.299683 C 1540.488037 769.059814 1539.025635 771.335449 1538.129395 772.356445 C 1537.233154 773.377441 1534.830444 775.064941 1532.789795 776.106445 C 1529.97168 777.544739 1526.966431 777.996033 1520.289795 777.983521 Z M 1384.5 713.5 C 1396.125 712.991943 1401.008789 713.375244 1402.853027 714.02417 C 1405.690186 715.022461 1406.72583 714.924072 1409.585205 713.384155 C 1411.960449 712.10498 1413.278564 711.87854 1414.021851 712.621826 C 1414.659424 713.259521 1414.964355 717.410767 1414.789673 723.077393 C 1414.5 732.475586 1414.5 732.475586 1409.800171 734.704346 C 1405.934692 736.537354 1404.909302 737.604614 1404.02417 740.716431 C 1403.432373 742.797363 1402.847168 751.699951 1402.723999 760.5 L 1402.5 776.5 L 1393.733643 776.789185 C 1387.250732 777.003052 1384.837402 776.739868 1384.468628 775.778809 C 1384.194336 775.064087 1384.089233 760.759033 1384.234985 743.989746 L 1384.5 713.5 Z M 1421.5 713.5 C 1433.900024 712.983643 1438.674438 713.258301 1440.109863 713.7771 C 1441.950439 714.442383 1443.424072 714.329956 1445.109863 713.39563 C 1446.424438 712.666992 1449.710449 712.054932 1452.412109 712.0354 C 1455.937012 712.01001 1458.570068 712.730103 1461.735596 714.585205 C 1466.146729 717.170288 1466.146729 717.170288 1470.117676 714.418457 C 1472.917969 712.477783 1475.328247 711.668213 1478.294189 711.671875 C 1480.607422 711.674683 1483.89917 712.403442 1485.609131 713.29126 C 1487.319092 714.179199 1489.344238 716.389404 1490.109131 718.202881 C 1491.18335 720.749268 1491.5 727.761719 1491.5 749 L 1491.5 776.5 L 1483 776.5 L 1474.5 776.5 L 1473.901123 752.5 C 1473.550537 738.446045 1472.835571 727.360352 1472.175903 725.75 C 1471.556396 724.237549 1470.37915 723 1469.559937 723 C 1468.740723 723 1467.498901 724.012451 1466.800537 725.25 C 1465.913818 726.821045 1465.375 734.893311 1465.015259 752 L 1464.5 776.5 L 1456 776.5 L 1447.5 776.5 L 1447.271729 753.5 C 1447.14624 740.849976 1446.783936 729.013916 1446.466553 727.19751 C 1446.149292 725.381104 1445.20459 723.63208 1444.36731 723.310669 C 1443.530029 722.98938 1442.092285 723.478149 1441.172485 724.396851 C 1439.726318 725.841309 1439.432373 729.479248 1439 751.283691 L 1438.5 776.5 L 1430.234253 776.79071 C 1424.155518 777.004517 1421.836426 776.737183 1421.469238 775.780396 C 1421.19458 775.064819 1421.089233 760.759033 1421.234985 743.989746 L 1421.5 713.5 Z M 1551.5 713.5 C 1565.001831 713.031738 1569.336426 713.377197 1570.596924 714.05188 C 1572.292236 714.959229 1573.419434 714.833008 1576.11377 713.43457 C 1577.976196 712.467896 1581.429688 711.674683 1583.78833 711.671875 C 1586.528564 711.668457 1589.05542 712.393555 1590.78833 713.68042 C 1592.279785 714.788086 1594.088989 716.775635 1594.808838 718.097168 C 1595.821167 719.955566 1596.047729 726.844238 1595.808838 748.5 L 1595.5 776.5 L 1587 776.5 L 1578.5 776.5 L 1578 751.283691 C 1577.567627 729.479614 1577.273682 725.841553 1575.827515 724.396973 C 1574.907715 723.478271 1573.469971 722.98938 1572.63269 723.310669 C 1571.79541 723.63208 1570.850708 725.381104 1570.533447 727.19751 C 1570.216064 729.013916 1569.85376 740.849976 1569.728271 753.5 L 1569.5 776.5 L 1560.733643 776.789185 C 1554.250732 777.003052 1551.837402 776.739868 1551.468628 775.778809 C 1551.194336 775.064087 1551.089233 760.759033 1551.234985 743.989746 L 1551.5 713.5 Z M 1621.80835 776.788086 C 1613.410278 777.066406 1613.005005 776.976379 1609.80835 774.121338 C 1606.5 771.166626 1606.5 771.166626 1606.253296 749.833252 C 1606.031494 730.666016 1605.803101 728.124512 1604.003296 724.80188 C 1602.901489 722.767944 1602 719.830566 1602 718.274414 C 1602 716.718262 1602.744751 714.381714 1603.655029 713.082153 C 1604.565308 711.782593 1605.596191 709.319946 1605.946045 707.609619 C 1606.582031 704.5 1606.582031 704.5 1615.5 704.5 C 1624.417969 704.5 1624.417969 704.5 1625.096069 707.815308 C 1625.468994 709.638794 1626.724976 712.142822 1627.887085 713.379761 C 1629.049194 714.616821 1630 716.88501 1630 718.420166 C 1630 719.955566 1628.848755 722.57959 1627.440918 724.252686 C 1624.881714 727.293945 1624.881714 727.293945 1625.190918 746.162109 C 1625.5 765.030029 1625.5 765.030029 1628.330566 767.285156 C 1630.637939 769.123291 1631.099976 770.18335 1630.830566 773.02002 C 1630.5 776.5 1630.5 776.5 1621.80835 776.788086 Z M 1355.708984 765.346313 C 1356.373901 764.457275 1357.204712 761.817627 1357.555176 759.480469 C 1357.905762 757.143311 1358.036621 748.669434 1357.846191 740.649658 C 1357.578369 729.368408 1357.160522 725.72937 1356 724.570313 C 1354.981445 723.553223 1354.018555 723.369995 1353 723.999756 C 1351.747314 724.77417 1351.5 728.236206 1351.5 745 C 1351.5 761.755981 1351.747803 765.229126 1353 766.017822 C 1354.052246 766.680664 1354.86084 766.480225 1355.708984 765.346313 Z M 1521 766 C 1521.986816 766 1523.032959 765.006836 1523.369629 763.75 C 1523.701416 762.512451 1523.972656 754.074951 1523.972656 745 C 1523.972656 735.925049 1523.701416 727.487549 1523.369629 726.25 C 1523.032959 724.993164 1521.986816 724 1521 724 C 1520.013184 724 1518.967041 724.993164 1518.630371 726.25 C 1518.298584 727.487549 1518.027344 735.925049 1518.027344 745 C 1518.027344 754.074951 1518.298584 762.512451 1518.630371 763.75 C 1518.967041 765.006836 1520.013184 766 1521 766 Z"/>
</svg>
